<?xml version="1.0" encoding="utf-8"?>
<!-- Svg Vector Icons : http://www.onlinewebfonts.com/icon -->
<!DOCTYPE svg PUBLIC "-//W3C//DTD SVG 1.1//EN" "http://www.w3.org/Graphics/SVG/1.1/DTD/svg11.dtd">
<svg version="1.1" xmlns="http://www.w3.org/2000/svg" xmlns:xlink="http://www.w3.org/1999/xlink" x="0px" y="0px" viewBox="0 0 256 256" enable-background="new 0 0 256 256" xml:space="preserve">
<metadata> Svg Vector Icons : http://www.onlinewebfonts.com/icon </metadata>
<g><g><path fill="#000000" d="M205.7,124.1V99.7c-40.3-15.3-103.8-24.3-157.3,1.5v21.1c11.3,7.1,26,39,23.3,52.5c-0.1,0.4-0.3,0.8-0.6,1.2L83,189.8c28-16.6,70.7-13.2,92.1,0.6l11.4-13.3c-0.9-0.8-1.5-1.6-1.6-2.3C182.3,162.2,194.8,133.7,205.7,124.1z M150.3,157.2c2.9-0.8,3.4,1.4,3.1,2.7c-7.7,19.7-36.3,16.4-48.9-0.5c-14-18.8-12.7-53,21.1-64.4c-11.4,13.7-19.7,32-9.9,48.6c15.2-7.8,31.6-27.4,12.5-47.1c24.7-8.2,55.4,34.9-9.6,51.7C126.8,156.1,139.2,157.5,150.3,157.2z"/><path fill="#000000" d="M60.3,31.3c7,1.1,16.4,13.6,16.4,13.6c0.4,0.6,0.9,0.2,1.1,0c14.7-8.9,31.8-14,50.2-14c19.3,0,36.7,5.2,51.8,15c0.7,0.3,1.4-0.7,1.8-1.4c1.8-2.8,7-8.4,14.4-13c2.9-1,5.7-0.4,6.4-2.5c-0.7-3.1-1.7-11.4-0.9-14.9c-4-1.2-9.8,8.4-10.9,13.8C172.5,16.6,151,10,128,10c-22.7,0-43.8,6.4-61.8,17.5c-1.4-5.5-6.9-14.4-10.8-13.3c0.9,3.4-0.1,11.7-0.9,14.9C55.2,31,57.5,30.8,60.3,31.3z"/><path fill="#000000" d="M226.8,63.5c5.8-11.3-13.5-32.7-28-30.2c-4.1,0.8-13.9,11-16.6,14.2c0.1,0-2.9,3.3-1.6,5.8c0.3,0.5,0.7,1.4,1.7,2.6l17.7-16c0.3-0.3,0.9-0.3,1.2,0c0.3,0.3,0.3,0.9,0,1.2l-17.7,16.1c1.3,1.5,3.1,3.3,5,5.2l17.7-16.1c0.3-0.3,0.9-0.3,1.2,0l0.3,0.4c0.3,0.3,0.3,0.9,0,1.2L190,63.8c1.8,1.7,3.6,3.4,5.5,5l18.9-15.5c0.4-0.3,0.9-0.2,1.2,0.1l0.8,1c0.3,0.4,0.2,0.9-0.1,1.2l-18.5,15.1c2.1,1.8,4.1,3.4,5.6,4.5c2,0.4,4.1,0.4,6.1-0.1c4.2,6.5,7.6,13.4,10.2,20.8c0.2,2.1-1.3,3.6-8,3.8l-0.1,21c0,0,0.1,0,0.1,0c2-0.2,7.8,1.9,13.3,4.7c0,0.8,0.1,1.6,0.1,2.4c0,1.5,0,3.1-0.1,4.6c0,0.5-0.1,1-0.1,1.5c-0.1,1-0.1,2.1-0.2,3.1c0,0.6-0.1,1.1-0.2,1.7c-0.1,1-0.2,1.9-0.4,2.8c-0.1,0.6-0.2,1.1-0.2,1.7c-0.2,1-0.3,2-0.5,3c-0.1,0.5-0.2,1-0.3,1.4c-0.3,1.4-0.6,2.8-1,4.2c-0.1,0.5-0.3,1-0.4,1.6c-0.2,0.9-0.5,1.8-0.7,2.6c-0.2,0.7-0.4,1.3-0.6,1.9c-0.2,0.7-0.5,1.4-0.7,2.2c-0.2,0.7-0.5,1.4-0.7,2c-0.2,0.7-0.5,1.3-0.8,2c-0.3,0.7-0.6,1.4-0.9,2.1c-0.3,0.6-0.5,1.2-0.8,1.8c-0.7,1.5-1.4,3-2.1,4.4c-0.2,0.4-0.4,0.7-0.6,1.1c-0.4,0.8-0.8,1.5-1.3,2.3c-0.3,0.5-0.5,0.9-0.8,1.4c-0.5,0.7-0.9,1.5-1.4,2.2c-0.3,0.4-0.6,0.9-0.8,1.3c-0.5,0.7-1,1.5-1.5,2.2c-0.3,0.4-0.5,0.7-0.8,1.1c-0.6,0.8-1.1,1.5-1.7,2.3c-4.9-1.7-10.2-3.9-14.1-6.1l-11.5,13.4c3.7,3.2,6.4,6.9,7.7,10.8l0,0c-1,0.8-2,1.5-3,2.3c-0.1,0-0.1,0.1-0.2,0.1c-5.1,3.6-10.5,6.7-16.3,9.3c-0.3,0.1-0.6,0.3-0.9,0.4c-0.9,0.4-1.8,0.8-2.7,1.1c-0.4,0.2-0.9,0.4-1.3,0.5c-0.9,0.3-1.7,0.7-2.6,1c-0.5,0.2-1,0.4-1.6,0.5c-0.8,0.3-1.7,0.6-2.5,0.8c-0.7,0.2-1.3,0.4-2,0.6c-1.2,0.3-2.4,0.7-3.6,0.9c-0.9,0.2-1.7,0.4-2.6,0.6c-0.6,0.1-1.3,0.2-1.9,0.4c-0.8,0.2-1.7,0.3-2.6,0.5c-0.6,0.1-1.3,0.2-1.9,0.3c-0.9,0.1-1.8,0.2-2.7,0.3c-0.6,0.1-1.2,0.1-1.8,0.2c-1,0.1-2,0.2-3,0.2c-0.5,0-1,0.1-1.5,0.1c-1.5,0.1-3.1,0.1-4.6,0.1c-1.6,0-3.1,0-4.7-0.1c-0.5,0-1-0.1-1.6-0.1c-1-0.1-2-0.1-3.1-0.2c-0.6,0-1.2-0.1-1.9-0.2c-0.9-0.1-1.8-0.2-2.7-0.3c-0.7-0.1-1.3-0.2-2-0.3c-0.8-0.1-1.7-0.3-2.5-0.5c-0.7-0.1-1.3-0.3-2-0.4c-0.8-0.2-1.6-0.4-2.4-0.6c-0.7-0.2-1.4-0.3-2-0.5c-0.8-0.2-1.5-0.4-2.3-0.7c-1.5-0.4-3-0.9-4.5-1.4c-0.5-0.2-1-0.3-1.5-0.5c-0.9-0.3-1.7-0.7-2.6-1c-0.5-0.2-1-0.4-1.4-0.6c-0.9-0.4-1.7-0.7-2.6-1.1c-0.4-0.2-0.9-0.4-1.3-0.6c-0.9-0.4-1.8-0.8-2.6-1.3c-0.4-0.2-0.8-0.4-1.1-0.6c-0.9-0.5-1.8-1-2.7-1.5c-0.3-0.1-0.5-0.3-0.8-0.5c-4.5-2.6-8.7-5.5-12.7-8.7c3.1-4,6.8-7.5,10.9-10.5l-11.5-13.4c-4.1,2.5-10,5-15.5,6.9C38.8,170.3,31.4,150,31.4,128c0-0.8,0-1.6,0.1-2.4c4.1-2,8.3-3.8,11.1-4.4l0.4-19.1c-1.9-0.3-3.7-0.5-5.4-0.7c-1.5-0.3-2.4-0.8-2.2-2.2c2.7-8.7,6.6-17,11.6-24.5c2.8,1,5.6,1.3,8.4,0.7c1.5-1.1,3.4-2.6,5.4-4.4l-0.6-0.5L42.1,55.8c-0.4-0.3-0.4-0.8-0.1-1.2l0.8-1c0.3-0.4,0.8-0.4,1.2-0.1l18.4,15.1l0.7,0.6c1.8-1.6,3.7-3.3,5.5-5L68,63.6L50.7,48c-0.3-0.3-0.4-0.9,0-1.2l0.3-0.4c0.3-0.3,0.9-0.4,1.2,0L69.5,62l0.6,0.5c1.9-1.9,3.7-3.7,5-5.2l-0.3-0.3L57.2,41.1c-0.3-0.3-0.4-0.9,0-1.2c0.3-0.3,0.9-0.4,1.2,0l17.3,15.7l0.6,0.5c1-1.2,1.7-2.2,1.9-2.8c0.5-1.7-0.6-3.9-2.4-6.3c-2-2.5-10.8-13.9-17.8-13.9C44.8,32.7,29.1,49.7,31,60.8C17.8,79.9,10,103,10,128c0,65.2,52.8,118,118,118c65.2,0,118-52.8,118-118C246,104.2,238.9,82.1,226.8,63.5z"/></g></g>
</svg>